<svg xmlns="http://www.w3.org/2000/svg" width="59" height="64" viewBox="0 0 59 64">
  <g id="Group_5902" data-name="Group 5902" transform="translate(-269 -617)">
    <text id="AlışverişGeçmişim" transform="translate(269 649)" fill="#3e3e3e" font-size="12" font-family="Gotham-Bold, Gotham" font-weight="700"><tspan x="0" y="10">Alışveriş</tspan><tspan x="0" y="28" font-family="Gotham-Book, Gotham" font-weight="400">Geçmişim</tspan></text>
    <path id="icons8-bill" d="M19,2a1,1,0,0,1-2,0H15a1,1,0,0,1-2,0H11A1,1,0,0,1,9,2H7A1,1,0,0,1,5,2H4A1,1,0,0,0,3,3V20a2,2,0,0,0,2,2H19a2,2,0,0,0,2-2V3a1,1,0,0,0-1-1ZM13,18H7a1,1,0,0,1-1-1H6a1,1,0,0,1,1-1h6a1,1,0,0,1,1,1h0A1,1,0,0,1,13,18Zm0-4H7a1,1,0,0,1-1-1H6a1,1,0,0,1,1-1h6a1,1,0,0,1,1,1h0A1,1,0,0,1,13,14Zm4.5,4h-1a.5.5,0,0,1-.5-.5v-1a.5.5,0,0,1,.5-.5h1a.5.5,0,0,1,.5.5v1A.5.5,0,0,1,17.5,18Zm0-4h-1a.5.5,0,0,1-.5-.5v-1a.5.5,0,0,1,.5-.5h1a.5.5,0,0,1,.5.5v1A.5.5,0,0,1,17.5,14ZM17,9H7A1,1,0,0,1,6,8H6A1,1,0,0,1,7,7H17a1,1,0,0,1,1,1h0A1,1,0,0,1,17,9Z" transform="translate(266 615)" fill="#65bab0"/>
  </g>
</svg>
