<svg xmlns="http://www.w3.org/2000/svg" width="50" height="64" viewBox="0 0 50 64">
  <g id="Group_5902" data-name="Group 5902" transform="translate(-269 -617)">
    <text id="Mağaza_Listesi" data-name="Mağaza 
Listesi" transform="translate(269 649)" fill="#3e3e3e" font-size="12" font-family="Gotham-Bold, Gotham" font-weight="700"><tspan x="0" y="10">Mağaza</tspan><tspan y="10" font-family="Gotham-Book, Gotham" font-weight="400"> </tspan><tspan font-family="Gotham-Book, Gotham" font-weight="400"><tspan x="0" y="28">Listesi</tspan></tspan></text>
    <path id="store-solid_1_" data-name="store-solid (1)" d="M21.629,4.25,19.3.538A1.147,1.147,0,0,0,18.332,0H3.853a1.147,1.147,0,0,0-.971.538L.556,4.25A3.2,3.2,0,0,0,2.663,9.139a3.724,3.724,0,0,0,.491.032A3.539,3.539,0,0,0,5.8,7.985a3.542,3.542,0,0,0,5.29,0,3.542,3.542,0,0,0,5.29,0,3.55,3.55,0,0,0,2.645,1.186,3.684,3.684,0,0,0,.491-.032A3.194,3.194,0,0,0,21.629,4.25Zm-2.6,6.071a4.547,4.547,0,0,1-1.057-.136v3.577H4.211V10.185a4.748,4.748,0,0,1-1.057.136,4.835,4.835,0,0,1-.645-.043,4.507,4.507,0,0,1-.588-.129V17.2a1.146,1.146,0,0,0,1.147,1.147H19.124A1.146,1.146,0,0,0,20.27,17.2V10.149a3.659,3.659,0,0,1-.588.129,4.984,4.984,0,0,1-.652.043Z" transform="translate(268.944 617)" fill="#65bab0"/>
  </g>
</svg>
