<svg xmlns="http://www.w3.org/2000/svg" xmlns:xlink="http://www.w3.org/1999/xlink" width="85.182" height="22.353" viewBox="0 0 85.182 22.353">
  <defs>
    <clipPath id="clip-path">
      <rect id="Rectangle_4624" data-name="Rectangle 4624" width="85.182" height="22.353" fill="#fff"/>
    </clipPath>
  </defs>
  <g id="Group_10790" data-name="Group 10790" transform="translate(0 -8)">
    <g id="Mask_Group_10736" data-name="Mask Group 10736" transform="translate(0 8)" clip-path="url(#clip-path)">
      <path id="Path_2034" data-name="Path 2034" d="M17.578,3.287h1a.723.723,0,0,0,.7-.717.684.684,0,0,0-.668-.717h-1a.728.728,0,0,0-.7.717.68.68,0,0,0,.666.717" transform="translate(-10.763 -1.18)" fill="#fff"/>
      <path id="Path_2035" data-name="Path 2035" d="M5.476,33.571H8.448a.737.737,0,0,0,.727-.717.694.694,0,0,0-.691-.717h-4a.744.744,0,0,0-.731.717.687.687,0,0,0,.686.717H5.476Z" transform="translate(-2.39 -20.454)" fill="#fff"/>
      <path id="Path_2036" data-name="Path 2036" d="M42.162,1.854h6.328l2.185,9.7,2.181-9.7h6.455V17.147H55.8V4.9L53.2,17.147H48.4L45.613,4.905V17.147H42.162Z" transform="translate(-26.834 -1.18)" fill="#fff" fill-rule="evenodd"/>
      <path id="Path_2037" data-name="Path 2037" d="M23.136,33.555h2.93a.716.716,0,0,0,0-1.432H23.158a.729.729,0,0,0-.72.716.7.7,0,0,0,.7.716" transform="translate(-14.28 -20.444)" fill="#fff"/>
      <path id="Path_2038" data-name="Path 2038" d="M26.875,3.286h2.632a.716.716,0,1,0,0-1.432H26.894a.716.716,0,0,0-.7.716.691.691,0,0,0,.676.716" transform="translate(-16.674 -1.18)" fill="#fff"/>
      <path id="Path_2039" data-name="Path 2039" d="M22.474,25.138H17.849a.734.734,0,0,0-.721.716.691.691,0,0,0,.686.716h6.9a.716.716,0,0,0,0-1.432H22.474Z" transform="translate(-10.901 -15.999)" fill="#fff"/>
      <path id="Path_2040" data-name="Path 2040" d="M28,40.7a.716.716,0,0,0-.716-.716H18.807A.794.794,0,0,0,18,40.7a.7.7,0,0,0,.737.716h8.544A.716.716,0,0,0,28,40.7Z" transform="translate(-11.456 -25.444)" fill="#fff"/>
      <path id="Path_2041" data-name="Path 2041" d="M18.637,11.346h8.624a.716.716,0,1,0,0-1.432h-8.58a.734.734,0,0,0-.714.716.679.679,0,0,0,.669.716" transform="translate(-11.435 -6.309)" fill="#fff"/>
      <path id="Path_2042" data-name="Path 2042" d="M5.115,18.427h6.312a.72.72,0,1,0,0-1.439H.729A.749.749,0,0,0,0,17.7a.672.672,0,0,0,.666.717H5.055c.02,0,.04.006.061.006" transform="translate(0 -10.812)" fill="#fff"/>
      <path id="Path_2043" data-name="Path 2043" d="M99.7,17.107H95.98l-3.5-4.822v4.822H89.2V1.8h3.279v9.16l3.279-4.787h3.826l-3.979,5.465Z" transform="translate(-56.772 -1.148)" fill="#fff"/>
      <path id="Path_2044" data-name="Path 2044" d="M127.367,22.858a5.793,5.793,0,0,1-9.9-4.1,5.555,5.555,0,0,1,1.683-4.1,5.886,5.886,0,0,1,8.22,0,5.556,5.556,0,0,1,1.683,4.1,5.555,5.555,0,0,1-1.683,4.1m-5.9-2.241a2.588,2.588,0,0,0,3.585,0,2.753,2.753,0,0,0,0-3.716,2.587,2.587,0,0,0-3.585,0,2.754,2.754,0,0,0,0,3.716" transform="translate(-74.758 -8.266)" fill="#fff"/>
      <rect id="Rectangle_4623" data-name="Rectangle 4623" width="3.279" height="15.959" transform="translate(55.932)" fill="#fff"/>
      <path id="Path_2045" data-name="Path 2045" d="M175.854,13.294h3.279V24.225h-3.279V23.2a4.085,4.085,0,0,1-3.258,1.334,4.829,4.829,0,0,1-3.695-1.672,5.85,5.85,0,0,1-1.53-4.1,5.849,5.849,0,0,1,1.53-4.1,4.829,4.829,0,0,1,3.695-1.672,4.085,4.085,0,0,1,3.258,1.334Zm-4.482,7.411a2.811,2.811,0,0,0,3.76,0,2.629,2.629,0,0,0,.722-1.946,2.629,2.629,0,0,0-.722-1.945,2.811,2.811,0,0,0-3.76,0,2.629,2.629,0,0,0-.721,1.945,2.629,2.629,0,0,0,.721,1.946" transform="translate(-106.521 -8.266)" fill="#fff"/>
      <path id="Path_2046" data-name="Path 2046" d="M210.516,13.83h3.5l-3.738,10.6a7.661,7.661,0,0,1-2.416,3.695,5.74,5.74,0,0,1-3.815,1.006V26.072a3.172,3.172,0,0,0,1.749-.4,2.776,2.776,0,0,0,.984-1.41l-4.35-10.428h3.607l2.427,6.69Z" transform="translate(-128.831 -8.802)" fill="#fff"/>
    </g>
  </g>
</svg>
